<svg id="Capa_1" data-name="Capa 1" xmlns="http://www.w3.org/2000/svg" viewBox="0 0 590 290"><defs><style>.cls-1{fill:#603d1e;}</style></defs><title>logoXL</title><path class="cls-1" d="M441.31,75.54a163.72,163.72,0,0,1-50.48,8.22c-34.78,0-61.61-11.5-90-23.66q-5.94-2.55-12-5.08v16L295,73.69c28.53,12.22,58,24.85,95.85,24.85A176,176,0,0,0,441.31,91Z"/><path class="cls-1" d="M390.83,257.59c-34.78,0-61.61-11.5-90-23.66s-58-24.85-95.85-24.85-67.32,12.63-95.86,24.85-55.25,23.66-90,23.66c-1.41,0-2.82,0-4.24-.08v14.78c1.41,0,2.83.08,4.24.08,37.81,0,67.32-12.63,95.85-24.85s55.26-23.65,90-23.65,61.61,11.49,90,23.65,58,24.85,95.85,24.85a176.38,176.38,0,0,0,50.48-7.56V249.37A163.72,163.72,0,0,1,390.83,257.59Z"/><path class="cls-1" d="M91.13,83.54V67.65c-22.2,9-44.67,16.11-72.07,16.11-1.41,0-2.82,0-4.24-.08V98.46c1.41,0,2.83.08,4.24.08C46.53,98.54,69.62,91.87,91.13,83.54Z"/><path class="cls-1" d="M116.31,92.5V35.66c5.8-2.52,11.61-5,17.47-7.36q-.15,21.86-.29,43.7c7.84-3.24,15.74-6.3,23.79-9q0,6.52-.08,13C143.26,80.77,129.8,86.65,116.31,92.5Z"/><path class="cls-1" d="M168.8,72.65q.12-27.92.23-55.84a151,151,0,0,1,43.1-2.73V27a173.17,173.17,0,0,0-25.87-.07v7.94a164.55,164.55,0,0,1,21.87-.22V47.5a159.89,159.89,0,0,0-21.89.28v8.7a168.65,168.65,0,0,1,27,0V69.36C198,68.41,183.65,69,168.8,72.65Z"/><path class="cls-1" d="M258,77.56c-5.72-1.77-11.49-3.26-17.35-4.51q-.06-10-.1-20-9.87-19.19-20.08-38.2c6.59.82,13.11,1.89,19.62,3.24q4.67,10.35,9.24,20.75,4.47-8,9-16,9.46,3,18.63,6.83-9.63,13.71-19,27.57Q257.93,67.43,258,77.56Z"/><path class="cls-1" d="M462.46,102.16V46.85c7.77-3.5,15.54-7,23.37-10.34,6.27-2.7,14.59-5.27,21.15-2,6.4,3.2,8,11,8.08,17.47.21,19.46-11.48,33.49-29,40.67C478.22,95.88,470.37,99.09,462.46,102.16Zm17.81-20.22,3.8-1.58c8.71-3.6,12.9-11.21,12.8-20.44,0-3.19,0-8.55-3.25-10.51-3-1.86-7.42,0-10.28,1.28L480,52.15Z"/><path class="cls-1" d="M526.75,77.26q-.27-27.9-.53-55.8c15-4.38,30.14-7.42,45.78-7.75V26.62a156.77,156.77,0,0,0-27.23,3.11q0,4,0,8a161,161,0,0,1,23-3v12.9a160.21,160.21,0,0,0-23,3.09q0,4.35,0,8.72a146.74,146.74,0,0,1,28.17-3.25V69C557.19,69.23,541.87,72.56,526.75,77.26Z"/><path class="cls-1" d="M15.48,205V149.65a192.53,192.53,0,0,0,20.65-1.29q0,9.33.07,18.66c6.17-.82,12.26-1.91,18.34-3.28q0-9.33-.1-18.66c6.2-1.48,12.3-3.2,18.37-5.14q.15,27.66.31,55.31-9.11,2.91-18.39,5.14L54.62,179c-6.09,1.37-12.19,2.46-18.37,3.28l.07,21.43A193.49,193.49,0,0,1,15.48,205Z"/><path class="cls-1" d="M86.94,135c5.77-2.2,11.48-4.51,17.18-6.88l.14,33.11c0,5.16,2.15,9.53,8,6.8,5.34-2.5,7.92-7.57,7.8-13.45q0-16.56-.1-33.11c5.61-2.33,11.23-4.63,16.9-6.81q0,15.63.05,31.26c0,17.12-9.11,29-24.6,35.63-5.41,2.29-12.82,5-18.49,2-5.92-3.17-6.73-11.41-6.7-17.36Q87,150.56,86.94,135Z"/><path class="cls-1" d="M149.92,165.24q0-27.66,0-55.31c7-2.28,14.08-4.25,21.28-5.85q4.88,16.36,9.8,32.71,5-17.85,10.13-35.64a152.62,152.62,0,0,1,22.63.08v55.31a155.07,155.07,0,0,0-16.7-.43v-16.9c.08-2.87.17-5.74.25-8.61l1-10h-.16q-5.46,18.06-10.67,36.2c-4.32.45-8.62,1.08-12.87,1.9q-5-16.62-10-33.27l-.15,0,.75,8q.19,4.26.37,8.51,0,9.38,0,18.75C160.32,162,155.11,163.55,149.92,165.24Z"/><path class="cls-1" d="M228,158.54V103.23c15.44,3,30.35,7.82,45.1,13.23v12.91c-8.9-3.27-17.86-6.32-27-8.94v7.91c7.7,2.22,15.28,4.73,22.82,7.42v12.91c-7.54-2.69-15.12-5.21-22.82-7.42v8.68c9.48,2.73,18.79,5.92,28,9.34v12.9C259.1,166.6,243.84,161.62,228,158.54Z"/><path class="cls-1" d="M286.48,176.86V121.55c8.09,3.16,16.17,6.36,24.27,9.48,16.18,6.18,28.87,18.42,28.89,36.63,0,7-1.29,15.82-8,19.64-6.46,3.65-14.9,1.33-21.33-1.14C302.34,183.1,294.42,180,286.48,176.86Zm18.13-5.8,3.84,1.48c8.53,3.38,13.05-1.4,13.06-10,0-9.9-4.2-16.08-13.44-19.65l-3.46-1.34Z"/><path class="cls-1" d="M345.94,198.31Q356,173,365.75,147.54a167.91,167.91,0,0,0,18.44,2c6.53,18.44,14.2,36.43,21.66,54.51a176.16,176.16,0,0,1-19.89.86q-1.08-3.69-2.15-7.38a165.93,165.93,0,0,1-18.06-2l-2.07,6.93C357.7,201.32,351.81,199.92,345.94,198.31Zm28.88-32.81Q372,175,369.21,184.58c3.81.54,7.61,1,11.45,1.26Q377.72,175.67,374.82,165.5Z"/><path class="cls-1" d="M417.3,202.45V147.14c6.44-1.17,12.78-2.63,19.1-4.34v42.41c8.51-2.41,16.87-5.22,25.16-8.3v12.91A263.87,263.87,0,0,1,417.3,202.45Z"/><path class="cls-1" d="M473.42,185.2V129.89c14.42-5.83,28.69-12,43.25-17.49v12.9C508,128.55,499.48,132,491,135.58v7.91c7.23-3,14.47-6,21.78-8.79v12.91c-7.31,2.82-14.55,5.79-21.78,8.79v8.68c8.87-3.68,17.75-7.31,26.75-10.66v12.91C502.77,172.88,488.17,179.24,473.42,185.2Z"/><path class="cls-1" d="M557.5,117.29a4,4,0,0,0-2.54-3.37,9,9,0,0,0-4.55-.17c-2.21.38-5.53,1.73-5.56,4.36-.05,4.68,12.38,3.87,15.43,4.39,8.26,1.39,15.67,5.8,15.72,15.05.07,13.87-13.93,19.58-25.44,21.65-9.53,1.71-23.09.39-23.5-12.2,5.49-1.78,11-3.39,16.61-4.8a4.73,4.73,0,0,0,2.89,3.71,9.36,9.36,0,0,0,5,.35c2.66-.46,7.33-1.94,7.32-5.28,0-5.16-12.18-3.94-15.4-4.12-8.1-.45-15.25-3-15.22-12.29,0-12.57,11.34-21.57,23-23.73,11.3-2.09,21.54,3.12,23.24,15A150.48,150.48,0,0,0,557.5,117.29Z"/><path class="cls-1" d="M496.4,263.2q-9.09,3.6-18.12,7.37l-.08-20.14c-6.87-8.87-13.73-17.74-20.5-26.68,6.69-2.78,13.38-5.6,20.06-8.41l9.57,14.84q4.71-11.3,9.43-22.59c6.63-2.58,13.29-5.05,20-7.35q-10.38,21.18-20.47,42.5Z"/><path class="cls-1" d="M516.22,255.85q9.71-30.69,19.7-61.3c6.13-1.52,12.28-2.79,18.52-3.75q10.18,26.8,19.86,53.8a155.79,155.79,0,0,0-18,1.26l-2.16-7c-6.08,1-12.08,2.22-18.06,3.71-.69,2.61-1.37,5.23-2.06,7.84C528,252.05,522.09,253.88,516.22,255.85Zm28.83-46.72q-2.81,10.53-5.58,21.07,5.7-1.32,11.46-2.35Q548,218.49,545.05,209.13Z"/></svg>